<svg width="1920" height="1080" viewBox="0 0 1920 1080" fill="none" xmlns="http://www.w3.org/2000/svg">
<g clip-path="url(#clip0_13602_1887)">
<path fill-rule="evenodd" clip-rule="evenodd" d="M1920 0H0V1080H1920V0ZM25.5914 64.0488C16 82.8731 16 107.515 16 156.8V518.044C16 557.787 16 577.659 22.9888 594.133C29.1543 608.666 39.1158 621.273 51.8291 630.632C66.24 641.241 85.5731 645.836 124.239 655.027L445.652 731.426C470.908 737.429 483.537 740.431 494.326 746.509C503.882 751.891 512.348 759.013 519.287 767.506C527.122 777.097 532.241 789.025 542.479 812.881L613.655 978.729C626.89 1009.57 633.507 1024.99 644.158 1036.31C653.572 1046.31 665.196 1053.97 678.102 1058.68C692.703 1064 709.483 1064 743.043 1064H1763.2C1812.48 1064 1837.13 1064 1855.95 1054.41C1872.51 1045.97 1885.97 1032.51 1894.41 1015.95C1904 997.127 1904 972.485 1904 923.2V237.402V237.4C1904 190.492 1904 167.037 1895.29 148.943C1886.64 130.979 1872.14 116.484 1854.18 107.834C1836.08 99.1211 1812.63 99.1211 1765.72 99.1211H1669C1646.04 99.1211 1627.44 80.5138 1627.44 57.5606C1627.44 34.6073 1608.83 16 1585.88 16H156.8C107.515 16 82.8731 16 64.0488 25.5914C47.4906 34.0283 34.0283 47.4906 25.5914 64.0488Z" fill="#1B1B25"/>
</g>
<defs>
<clipPath id="clip0_13602_1887">
<rect width="1920" height="1080" fill="white"/>
</clipPath>
</defs>
</svg>
